<svg width="20" height="20" viewBox="0 0 20 20" fill="none" xmlns="http://www.w3.org/2000/svg">
<path d="M6.71392 4.00001C6.78822 3.92563 6.87645 3.86662 6.97357 3.82636C7.07069 3.7861 7.17479 3.76538 7.27993 3.76538C7.38506 3.76538 7.48916 3.7861 7.58628 3.82636C7.6834 3.86662 7.77163 3.92563 7.84592 4.00001L13.2839 9.43401C13.3583 9.50831 13.4173 9.59654 13.4576 9.69366C13.4978 9.79078 13.5186 9.89488 13.5186 10C13.5186 10.1051 13.4978 10.2092 13.4576 10.3064C13.4173 10.4035 13.3583 10.4917 13.2839 10.566L7.84592 16C7.77231 16.0774 7.68395 16.1392 7.58606 16.1818C7.48818 16.2245 7.38274 16.2471 7.27597 16.2484C7.16919 16.2497 7.06325 16.2296 6.96437 16.1893C6.86549 16.1489 6.77569 16.0892 6.70025 16.0137C6.62481 15.9381 6.56527 15.8482 6.52513 15.7492C6.48498 15.6503 6.46505 15.5443 6.46651 15.4375C6.46797 15.3308 6.49079 15.2254 6.53363 15.1276C6.57646 15.0297 6.63845 14.9415 6.71593 14.868L11.5879 10L6.71593 5.13201C6.64141 5.05784 6.58225 4.96972 6.54182 4.87267C6.50139 4.77562 6.48048 4.67156 6.48029 4.56642C6.48011 4.46129 6.50065 4.35715 6.54074 4.25996C6.58082 4.16278 6.63968 4.07444 6.71392 4.00001Z" fill="white"/>
</svg>
