<svg width="15" height="31" viewBox="0 0 15 31" fill="none" xmlns="http://www.w3.org/2000/svg">
<path d="M14.8577 15.4344C14.8438 15.1995 14.7513 14.9761 14.5952 14.8L1.99523 0.79998C1.90478 0.692161 1.79358 0.603624 1.66824 0.539631C1.54289 0.475635 1.40596 0.437487 1.26558 0.427456C1.1252 0.417425 0.984237 0.435715 0.851067 0.481235C0.717896 0.526758 0.59525 0.598585 0.490386 0.692448C0.385522 0.78631 0.300582 0.900295 0.240639 1.02763C0.180697 1.15496 0.146978 1.29305 0.141454 1.43367C0.13593 1.5743 0.15872 1.7146 0.208489 1.84624C0.258258 1.97789 0.333971 2.09818 0.431148 2.19998L12.3968 15.5L0.431149 28.8C0.333972 28.9018 0.25826 29.0221 0.20849 29.1537C0.158721 29.2854 0.13591 29.4257 0.141434 29.5663C0.146958 29.7069 0.180698 29.845 0.240641 29.9724C0.300583 30.0997 0.385523 30.2137 0.490387 30.3075C0.595251 30.4014 0.717898 30.4732 0.851068 30.5187C0.984239 30.5643 1.1252 30.5826 1.26558 30.5725C1.40596 30.5625 1.5429 30.5243 1.66824 30.4604C1.79359 30.3964 1.90478 30.3078 1.99523 30.2L14.5952 16.2C14.6875 16.0961 14.7581 15.9749 14.8032 15.8435C14.8483 15.7121 14.8668 15.573 14.8577 15.4344Z" fill="#1987EC"/>
</svg>
