<svg width="15" height="31" viewBox="0 0 15 31" fill="none" xmlns="http://www.w3.org/2000/svg">
<path d="M0.142271 15.5656C0.156223 15.8005 0.248667 16.0239 0.404772 16.2L13.0048 30.2C13.0952 30.3078 13.2064 30.3964 13.3318 30.4604C13.4571 30.5244 13.594 30.5625 13.7344 30.5725C13.8748 30.5826 14.0158 30.5643 14.1489 30.5188C14.2821 30.4732 14.4047 30.4014 14.5096 30.3075C14.6145 30.2137 14.6994 30.0997 14.7594 29.9724C14.8193 29.845 14.853 29.707 14.8585 29.5663C14.8641 29.4257 14.8413 29.2854 14.7915 29.1538C14.7417 29.0221 14.666 28.9018 14.5689 28.8L2.60323 15.5L14.5689 2.2C14.666 2.0982 14.7417 1.97791 14.7915 1.84626C14.8413 1.71462 14.8641 1.57432 14.8586 1.43369C14.853 1.29306 14.8193 1.15498 14.7594 1.02765C14.6994 0.900315 14.6145 0.78633 14.5096 0.692467C14.4047 0.598604 14.2821 0.526778 14.1489 0.481256C14.0158 0.435733 13.8748 0.417444 13.7344 0.427476C13.594 0.437507 13.4571 0.475653 13.3318 0.539648C13.2064 0.603644 13.0952 0.692182 13.0048 0.800002L0.404772 14.8C0.312545 14.9039 0.241868 15.0251 0.196809 15.1565C0.15175 15.2879 0.133203 15.427 0.142271 15.5656Z" fill="#1987EC"/>
</svg>
