<svg width="23" height="23" viewBox="0 0 23 23" fill="none" xmlns="http://www.w3.org/2000/svg">
<mask id="mask0_254_755" style="mask-type:alpha" maskUnits="userSpaceOnUse" x="0" y="0" width="23" height="23">
<path fill-rule="evenodd" clip-rule="evenodd" d="M19.649 3.34241C17.4869 1.18818 14.6115 0.00121081 11.548 0C5.23587 0 0.0985481 5.11237 0.096022 11.3963C0.09518 13.405 0.622537 15.3658 1.62464 17.0941L0 23L6.07087 21.4152C7.74351 22.3231 9.62677 22.8016 11.5434 22.8024H11.5482C17.8597 22.8024 22.9974 17.6894 23 11.4054C23.0012 8.36011 21.8112 5.49663 19.649 3.34241ZM11.5482 20.8775H11.5443C9.83632 20.8768 8.16109 20.4202 6.69971 19.5571L6.35211 19.3518L2.74962 20.2923L3.71121 16.7967L3.48486 16.4383C2.53206 14.9301 2.02881 13.1869 2.02956 11.397C2.03165 6.17407 6.30162 1.92488 11.5519 1.92488C14.0942 1.92585 16.4841 2.91247 18.2812 4.70299C20.0783 6.4935 21.0675 8.87353 21.0665 11.4047C21.0643 16.628 16.7944 20.8775 11.5482 20.8775ZM16.7692 13.7829C16.483 13.6404 15.0762 12.9514 14.8139 12.8564C14.5516 12.7614 14.3609 12.7139 14.1701 12.999C13.9794 13.284 13.431 13.9255 13.264 14.1155C13.0971 14.3056 12.9302 14.3294 12.6441 14.1868C12.3579 14.0443 11.4359 13.7436 10.343 12.7734C9.49236 12.0183 8.91804 11.0857 8.75113 10.8006C8.58422 10.5155 8.73339 10.3614 8.87663 10.2194C9.00533 10.0918 9.16276 9.88682 9.30584 9.72051C9.44889 9.55422 9.49657 9.43544 9.59194 9.2454C9.68734 9.05534 9.63966 8.88902 9.56811 8.74648C9.49657 8.60395 8.92434 7.20226 8.68586 6.63209C8.45362 6.0768 8.21769 6.15193 8.04205 6.14324C7.87533 6.13498 7.68438 6.13321 7.49365 6.13321C7.30288 6.13321 6.99289 6.20449 6.73058 6.48956C6.46831 6.77466 5.72914 7.46361 5.72914 8.86527C5.72914 10.2669 6.75444 11.6211 6.89752 11.8111C7.04057 12.0012 8.91523 14.8776 11.7857 16.1111C12.4684 16.4045 13.0014 16.5797 13.4169 16.711C14.1024 16.9277 14.7262 16.8971 15.2193 16.8238C15.769 16.7421 16.9122 16.1349 17.1507 15.4697C17.3891 14.8045 17.3891 14.2343 17.3176 14.1155C17.2461 13.9968 17.0553 13.9255 16.7692 13.7829Z" fill="black"/>
</mask>
<g mask="url(#mask0_254_755)">
<rect x="-5" y="-5" width="36" height="34" fill="#2BB742"/>
</g>
</svg>
