<svg width="5" height="8" viewBox="0 0 5 8" fill="none" xmlns="http://www.w3.org/2000/svg">
<path d="M0.17547 0.150366C0.228148 0.102698 0.290704 0.0648821 0.359562 0.0390812C0.42842 0.0132802 0.502228 0 0.576768 0C0.651308 0 0.725116 0.0132802 0.793974 0.0390812C0.862832 0.0648821 0.925387 0.102698 0.978065 0.150366L4.83365 3.63284C4.88638 3.68045 4.92822 3.737 4.95676 3.79924C4.98531 3.86148 5 3.92819 5 3.99557C5 4.06294 4.98531 4.12966 4.95676 4.1919C4.92822 4.25414 4.88638 4.31068 4.83365 4.3583L0.978065 7.84077C0.92587 7.89034 0.863226 7.92996 0.793823 7.9573C0.724421 7.98464 0.649664 7.99915 0.573961 7.99996C0.498259 8.00078 0.423141 7.98789 0.353037 7.96205C0.282934 7.93621 0.219263 7.89795 0.165776 7.84951C0.11229 7.80108 0.0700712 7.74346 0.0416093 7.68005C0.0131474 7.61664 -0.000982761 7.54872 5.29289e-05 7.48029C0.00108862 7.41187 0.0172677 7.34432 0.0476384 7.28164C0.0780091 7.21895 0.121956 7.1624 0.176888 7.11531L3.63117 3.99557L0.176888 0.875828C0.124059 0.828297 0.0821109 0.771819 0.0534449 0.709625C0.0247788 0.64743 0.00995588 0.580739 0.00982428 0.513363C0.00969267 0.445987 0.0242548 0.379248 0.0526776 0.316962C0.0811005 0.254677 0.122826 0.198066 0.17547 0.150366Z" fill="#1277D3"/>
</svg>
