<svg width="22" height="21" viewBox="0 0 22 21" fill="none" xmlns="http://www.w3.org/2000/svg">
<path fill-rule="evenodd" clip-rule="evenodd" d="M18.9959 10.4537C18.9959 15.0942 15.1967 18.891 10.553 18.891C5.90956 18.891 2.11037 15.0942 2.11037 10.4537C2.11037 4.84098 7.5456 0.811537 12.8748 2.33258L14.5633 0.645312C7.44201 -1.72846 0 2.64908 0 10.4536C0 16.2542 4.74879 21 10.553 21C16.3572 21 21.1063 16.2542 21.1063 10.4536H18.9959L18.9959 10.4537ZM20.8581 4.08256C21.8398 3.10145 20.3472 1.61001 19.3657 2.59087L10.0879 11.8623L6.27803 8.05501C5.2963 7.07415 3.80392 8.56584 4.78539 9.5467L9.34172 14.0997C9.75378 14.5115 10.4223 14.5115 10.8344 14.0997L20.858 4.08256H20.8581Z" fill="#1277D3"/>
</svg>
