<svg width="25" height="24" viewBox="0 0 25 24" fill="none" xmlns="http://www.w3.org/2000/svg">
<path d="M23.625 21.5H22.75V8.375C22.7492 7.67904 22.4724 7.0118 21.9803 6.51968C21.4882 6.02757 20.821 5.75076 20.125 5.75H14V3.125C13.9992 2.42904 13.7224 1.7618 13.2303 1.26968C12.7382 0.777565 12.071 0.50076 11.375 0.5H4.375C3.67904 0.50076 3.0118 0.777565 2.51968 1.26968C2.02757 1.7618 1.75076 2.42904 1.75 3.125V21.5H0.875C0.642936 21.5 0.420376 21.5922 0.256282 21.7563C0.0921872 21.9204 0 22.1429 0 22.375C0 22.6071 0.0921872 22.8296 0.256282 22.9937C0.420376 23.1578 0.642936 23.25 0.875 23.25H23.625C23.8571 23.25 24.0796 23.1578 24.2437 22.9937C24.4078 22.8296 24.5 22.6071 24.5 22.375C24.5 22.1429 24.4078 21.9204 24.2437 21.7563C24.0796 21.5922 23.8571 21.5 23.625 21.5ZM12.25 6.625V21.5H3.5V3.125C3.50023 2.89301 3.59249 2.67058 3.75654 2.50654C3.92058 2.34249 4.14301 2.25023 4.375 2.25H11.375C11.607 2.25023 11.8294 2.34249 11.9935 2.50654C12.1575 2.67058 12.2498 2.89301 12.25 3.125V6.625ZM21 21.5H14V7.5H20.125C20.357 7.50023 20.5794 7.59249 20.7435 7.75654C20.9075 7.92058 20.9998 8.14301 21 8.375V21.5Z" fill="#1277D3"/>
<path d="M7 4H5.25V5.75H7V4Z" fill="#1277D3"/>
<path d="M10.5 4H8.75V5.75H10.5V4Z" fill="#1277D3"/>
<path d="M10.5 7.5H8.75V9.25H10.5V7.5Z" fill="#1277D3"/>
<path d="M7 7.5H5.25V9.25H7V7.5Z" fill="#1277D3"/>
<path d="M7 11H5.25V12.75H7V11Z" fill="#1277D3"/>
<path d="M10.5 11H8.75V12.75H10.5V11Z" fill="#1277D3"/>
<path d="M7 14.5H5.25V16.25H7V14.5Z" fill="#1277D3"/>
<path d="M10.5 14.5H8.75V16.25H10.5V14.5Z" fill="#1277D3"/>
<path d="M7 18H5.25V19.75H7V18Z" fill="#1277D3"/>
<path d="M10.5 18H8.75V19.75H10.5V18Z" fill="#1277D3"/>
<path d="M18.375 10.125H16.625V11.875H18.375V10.125Z" fill="#1277D3"/>
<path d="M18.375 13.625H16.625V15.375H18.375V13.625Z" fill="#1277D3"/>
<path d="M18.375 17.125H16.625V18.875H18.375V17.125Z" fill="#1277D3"/>
</svg>
