<svg width="20" height="28" viewBox="0 0 20 28" fill="none" xmlns="http://www.w3.org/2000/svg">
<path d="M19.0375 5.69715L14.5631 1.22275C14.4367 1.0965 14.2866 0.996382 14.1215 0.928126C13.9565 0.85987 13.7795 0.824811 13.6009 0.824952H2.26527C1.90458 0.824952 1.55866 0.968237 1.30361 1.22329C1.04856 1.47834 0.905273 1.82426 0.905273 2.18495V26.24C0.905273 26.6006 1.04856 26.9466 1.30361 27.2016C1.55866 27.4567 1.90458 27.6 2.26527 27.6H18.0753C18.436 27.6 18.7819 27.4567 19.0369 27.2016C19.292 26.9466 19.4353 26.6006 19.4353 26.24V6.65935C19.4354 6.4807 19.4004 6.30377 19.3321 6.13868C19.2638 5.97358 19.1637 5.82355 19.0375 5.69715V5.69715ZM4.90027 8.33895H12.5095V9.40315H4.90027V8.33895ZM15.4403 20.086H4.90027V19.0218H15.4403V20.086ZM15.4403 16.5228H4.90027V15.462H15.4403V16.5228V16.5228ZM15.4403 12.98H4.90027V11.9022H15.4403V12.98Z" fill="#349EFF"/>
</svg>
