<svg width="19" height="12" viewBox="0 0 19 12" fill="none" xmlns="http://www.w3.org/2000/svg">
<path d="M18.4922 1.14844C18.6328 0.632812 18.4219 0.375 17.8594 0.375H15.7852C15.3633 0.375 15.0703 0.574219 14.9062 0.972656L14.5547 1.67578C14.2734 2.28516 13.9805 2.84766 13.6758 3.36328C13.2305 4.08984 12.7852 4.69922 12.3398 5.19141C12.1055 5.44922 11.918 5.625 11.7773 5.71875C11.6367 5.78906 11.5078 5.82422 11.3906 5.82422C11.2969 5.82422 11.2148 5.77734 11.1445 5.68359C11.0742 5.58984 11.0391 5.4375 11.0391 5.22656V1.14844C11.0391 0.867188 10.9922 0.667969 10.8984 0.550781C10.8281 0.433594 10.6875 0.375 10.4766 0.375H7.20703C7.06641 0.375 6.9375 0.421875 6.82031 0.515625C6.72656 0.609375 6.67969 0.726562 6.67969 0.867188C6.67969 0.984375 6.76172 1.14844 6.92578 1.35938C7.08984 1.54688 7.20703 1.72266 7.27734 1.88672C7.41797 2.16797 7.5 2.49609 7.52344 2.87109V5.92969C7.52344 6.23438 7.48828 6.44531 7.41797 6.5625C7.37109 6.65625 7.27734 6.70312 7.13672 6.70312C6.90234 6.70312 6.57422 6.44531 6.15234 5.92969C5.73047 5.41406 5.30859 4.74609 4.88672 3.92578C4.41797 3.03516 4.01953 2.12109 3.69141 1.18359C3.59766 0.878906 3.48047 0.667969 3.33984 0.550781C3.22266 0.433594 3.03516 0.375 2.77734 0.375H0.703125C0.234375 0.375 0 0.574219 0 0.972656C0 1.20703 0.0820312 1.61719 0.246094 2.20312C0.503906 2.92969 0.84375 3.71484 1.26562 4.55859C1.80469 5.66016 2.47266 6.75 3.26953 7.82812C4.11328 9.04688 5.09766 9.98438 6.22266 10.6406C7.34766 11.2969 8.46094 11.625 9.5625 11.625C10.1953 11.625 10.6172 11.5547 10.8281 11.4141C10.9922 11.2969 11.0625 11.0977 11.0391 10.8164V9.90234C11.0391 9.33984 11.0508 8.97656 11.0742 8.8125C11.0742 8.57812 11.1094 8.42578 11.1797 8.35547C11.2734 8.28516 11.4141 8.25 11.6016 8.25C12.0469 8.25 12.7383 8.69531 13.6758 9.58594C13.957 9.86719 14.2734 10.2188 14.625 10.6406C15 11.0391 15.2578 11.2852 15.3984 11.3789C15.6094 11.543 15.8438 11.625 16.1016 11.625H18.1758C18.457 11.625 18.6562 11.5547 18.7734 11.4141C18.9141 11.25 18.9492 11.0273 18.8789 10.7461C18.668 10.0898 17.7188 8.89453 16.0312 7.16016L15.7148 6.80859C15.5742 6.64453 15.5039 6.50391 15.5039 6.38672C15.5039 6.26953 15.5742 6.10547 15.7148 5.89453C15.7383 5.87109 15.9609 5.55469 16.3828 4.94531C16.875 4.17188 17.2969 3.49219 17.6484 2.90625C18.1406 2.08594 18.4219 1.5 18.4922 1.14844Z" fill="#1987EC"/>
</svg>
