<svg width="17" height="12" viewBox="0 0 17 12" fill="none" xmlns="http://www.w3.org/2000/svg">
<path d="M16.0797 2.23926C15.8957 1.56503 15.3535 1.03402 14.6652 0.853819C13.4174 0.526367 8.41406 0.526367 8.41406 0.526367C8.41406 0.526367 3.41075 0.526367 2.16297 0.853819C1.47458 1.03405 0.932411 1.56503 0.748398 2.23926C0.414062 3.46134 0.414062 6.01111 0.414062 6.01111C0.414062 6.01111 0.414062 8.56087 0.748398 9.78296C0.932411 10.4572 1.47458 10.9661 2.16297 11.1463C3.41075 11.4737 8.41406 11.4737 8.41406 11.4737C8.41406 11.4737 13.4174 11.4737 14.6652 11.1463C15.3535 10.9661 15.8957 10.4572 16.0797 9.78296C16.4141 8.56087 16.4141 6.01111 16.4141 6.01111C16.4141 6.01111 16.4141 3.46134 16.0797 2.23926ZM6.77769 8.3261V3.69611L10.9595 6.01117L6.77769 8.3261Z" fill="#1987EC"/>
</svg>
