<svg width="18" height="16" viewBox="0 0 18 16" fill="none" xmlns="http://www.w3.org/2000/svg">
<g clip-path="url(#clip0_254_1018)">
<path d="M8.81646 3.89209C6.43436 3.89209 4.50586 5.73076 4.50586 7.99742C4.50586 10.2661 6.43646 12.1028 8.81646 12.1028C11.1986 12.1028 13.1271 10.2641 13.1271 7.99742C13.1271 5.72876 11.1965 3.89209 8.81646 3.89209ZM8.81646 10.6621C7.27016 10.6621 6.01856 9.46942 6.01856 7.99742C6.01856 6.52542 7.27086 5.33276 8.81646 5.33276C10.3621 5.33276 11.6144 6.52542 11.6144 7.99742C11.6151 9.46942 10.3628 10.6621 8.81646 10.6621Z" fill="#1987EC"/>
<path d="M12.2778 0.0509902C10.7322 -0.0176765 6.90391 -0.0143431 5.35691 0.0509902C3.99752 0.111657 2.79842 0.424323 1.83172 1.34499C0.216122 2.88366 0.422622 4.95699 0.422622 7.99765C0.422622 11.1097 0.240622 13.135 1.83172 14.6503C3.45362 16.1943 5.66211 15.9923 8.81701 15.9923C12.0538 15.9923 13.171 15.9943 14.3155 15.5723C15.8716 14.997 17.0462 13.6723 17.161 11.293C17.2338 9.82032 17.2296 6.17499 17.161 4.70165C17.0224 1.89299 15.4397 0.189657 12.2778 0.0509902ZM14.7243 13.6323C13.6652 14.641 12.1959 14.551 8.79671 14.551C5.29672 14.551 3.89322 14.6003 2.86912 13.6223C1.68962 12.5043 1.90312 10.709 1.90312 7.98699C1.90312 4.30365 1.50622 1.65099 5.38772 1.46166C6.27951 1.43166 6.54201 1.42166 8.78691 1.42166L8.81841 1.44166C12.5487 1.44166 15.4754 1.06966 15.6511 4.76565C15.691 5.60899 15.7001 5.86232 15.7001 7.99699C15.6994 11.2917 15.7652 12.6363 14.7243 13.6323Z" fill="#1987EC"/>
<path d="M13.2983 4.68941C13.8546 4.68941 14.3056 4.25991 14.3056 3.73008C14.3056 3.20026 13.8546 2.77075 13.2983 2.77075C12.742 2.77075 12.291 3.20026 12.291 3.73008C12.291 4.25991 12.742 4.68941 13.2983 4.68941Z" fill="#1987EC"/>
</g>
<defs>
<clipPath id="clip0_254_1018">
<rect width="16.8" height="16" fill="white" transform="translate(0.414062)"/>
</clipPath>
</defs>
</svg>
