<svg width="20" height="20" viewBox="0 0 20 20" fill="none" xmlns="http://www.w3.org/2000/svg">
<path d="M9.625 4.80859C8.73698 4.80859 7.90625 5.03776 7.13281 5.49609C6.38802 5.92578 5.78646 6.52734 5.32812 7.30078C4.89844 8.04557 4.68359 8.86198 4.68359 9.75C4.68359 10.638 4.89844 11.4688 5.32812 12.2422C5.78646 12.987 6.38802 13.5885 7.13281 14.0469C7.90625 14.4766 8.73698 14.6914 9.625 14.6914C10.513 14.6914 11.3294 14.4766 12.0742 14.0469C12.8477 13.5885 13.4492 12.987 13.8789 12.2422C14.3372 11.4688 14.5664 10.638 14.5664 9.75C14.5664 8.86198 14.3372 8.04557 13.8789 7.30078C13.4492 6.52734 12.8477 5.92578 12.0742 5.49609C11.3294 5.03776 10.513 4.80859 9.625 4.80859ZM9.625 12.9727C8.73698 12.9727 7.97786 12.6576 7.34766 12.0273C6.71745 11.3971 6.40234 10.638 6.40234 9.75C6.40234 8.86198 6.71745 8.10286 7.34766 7.47266C7.97786 6.84245 8.73698 6.52734 9.625 6.52734C10.513 6.52734 11.2721 6.84245 11.9023 7.47266C12.5326 8.10286 12.8477 8.86198 12.8477 9.75C12.8477 10.638 12.5326 11.3971 11.9023 12.0273C11.2721 12.6576 10.513 12.9727 9.625 12.9727ZM15.9414 4.59375C15.9128 4.90885 15.7839 5.18099 15.5547 5.41016C15.3542 5.63932 15.0964 5.75391 14.7812 5.75391C14.4661 5.75391 14.194 5.63932 13.9648 5.41016C13.7357 5.18099 13.6211 4.90885 13.6211 4.59375C13.6211 4.27865 13.7357 4.00651 13.9648 3.77734C14.194 3.54818 14.4661 3.43359 14.7812 3.43359C15.0964 3.43359 15.3685 3.54818 15.5977 3.77734C15.8268 4.00651 15.9414 4.27865 15.9414 4.59375ZM19.207 5.75391C19.1497 4.92318 19.0208 4.20703 18.8203 3.60547C18.5625 2.88932 18.1615 2.27344 17.6172 1.75781C17.1016 1.21354 16.4857 0.8125 15.7695 0.554688C15.168 0.354167 14.4518 0.239583 13.6211 0.210938C12.819 0.153646 11.487 0.125 9.625 0.125C7.76302 0.125 6.41667 0.153646 5.58594 0.210938C4.78385 0.239583 4.08203 0.354167 3.48047 0.554688C2.76432 0.8125 2.13411 1.21354 1.58984 1.75781C1.07422 2.27344 0.6875 2.88932 0.429688 3.60547C0.229167 4.20703 0.10026 4.92318 0.0429688 5.75391C0.0143229 6.55599 0 7.88802 0 9.75C0 11.612 0.0143229 12.9583 0.0429688 13.7891C0.10026 14.5911 0.229167 15.293 0.429688 15.8945C0.6875 16.6107 1.07422 17.2409 1.58984 17.7852C2.13411 18.3008 2.76432 18.6732 3.48047 18.9023C4.08203 19.1315 4.78385 19.2604 5.58594 19.2891C6.41667 19.3464 7.76302 19.375 9.625 19.375C11.487 19.375 12.819 19.3464 13.6211 19.2891C14.4518 19.2604 15.168 19.1458 15.7695 18.9453C16.4857 18.6875 17.1016 18.3008 17.6172 17.7852C18.1615 17.2409 18.5625 16.6107 18.8203 15.8945C19.0208 15.293 19.1354 14.5911 19.1641 13.7891C19.2214 12.9583 19.25 11.612 19.25 9.75C19.25 7.88802 19.2357 6.55599 19.207 5.75391ZM17.1445 15.4219C16.8008 16.2812 16.1849 16.8971 15.2969 17.2695C14.8385 17.4414 14.0651 17.556 12.9766 17.6133C12.375 17.6419 11.487 17.6562 10.3125 17.6562H8.9375C7.79167 17.6562 6.90365 17.6419 6.27344 17.6133C5.21354 17.556 4.4401 17.4414 3.95312 17.2695C3.09375 16.9258 2.47786 16.3099 2.10547 15.4219C1.93359 14.9349 1.81901 14.1615 1.76172 13.1016C1.73307 12.4714 1.71875 11.5833 1.71875 10.4375V9.0625C1.71875 7.91667 1.73307 7.02865 1.76172 6.39844C1.81901 5.3099 1.93359 4.53646 2.10547 4.07812C2.44922 3.1901 3.0651 2.57422 3.95312 2.23047C4.4401 2.05859 5.21354 1.94401 6.27344 1.88672C6.90365 1.85807 7.79167 1.84375 8.9375 1.84375H10.3125C11.4583 1.84375 12.3464 1.85807 12.9766 1.88672C14.0651 1.94401 14.8385 2.05859 15.2969 2.23047C16.1849 2.57422 16.8008 3.1901 17.1445 4.07812C17.3164 4.53646 17.431 5.3099 17.4883 6.39844C17.5169 7 17.5312 7.88802 17.5312 9.0625V10.4375C17.5312 11.5833 17.5169 12.4714 17.4883 13.1016C17.431 14.1615 17.3164 14.9349 17.1445 15.4219Z" fill="white"/>
</svg>
