<svg width="86" height="86" viewBox="0 0 86 86" fill="none" xmlns="http://www.w3.org/2000/svg">
<path d="M48.6302 27.534C48.6302 27.534 48.5983 29.9368 49.8222 32.3816C51.0446 34.8264 53.7837 37.3749 58.4712 37.3749C63.1587 37.3749 65.884 34.8264 67.1064 32.3816C68.3287 29.9368 68.3121 27.5338 68.3121 27.5338C68.312 27.3308 68.2695 27.1304 68.1845 26.9447L60.5751 10.4499C62.917 10.0311 64.7197 9.09866 64.7197 9.09866C66.5274 8.3079 65.1826 5.61529 63.4645 6.58554C63.4645 6.58554 60.815 7.8408 58.4712 7.8408C55.1154 7.8408 50.9643 5.41626 44.4032 5.09151V2.21571C44.4139 1.42665 43.7724 0.784184 42.9832 0.79306H42.9832C42.2062 0.80369 41.5819 1.43893 41.5907 2.21588V5.09427C35.0368 5.42167 30.8901 7.8408 27.5364 7.8408C25.1926 7.8408 22.5321 6.5857 22.5321 6.5857C20.8141 5.6155 19.4692 8.30806 21.2769 9.09882C21.2769 9.09882 23.0868 10.0317 25.4325 10.4501L17.8657 26.8417C17.7466 27.0527 17.6845 27.2913 17.6845 27.5338C17.6845 27.5338 17.6632 29.9368 18.8875 32.3816C20.1099 34.8264 22.849 37.3748 27.5365 37.3748C32.224 37.3748 34.9493 34.8264 36.1717 32.3816C37.3941 29.9368 37.3774 27.5338 37.3774 27.5338C37.3776 27.2936 37.3163 27.0571 37.1989 26.8472L29.6485 10.4748C33.6174 9.86854 37.3357 7.8408 43.0024 7.8408C48.6679 7.8408 52.3884 9.868 56.3563 10.4748L48.7566 26.9447C48.6747 27.1302 48.6306 27.3312 48.6301 27.534H48.6302ZM43.0023 10.6561C42.5107 10.6561 42.0542 10.7039 41.5906 10.7385V40.1901H31.7495C31.7017 40.1873 31.6528 40.1873 31.6039 40.1901C29.7717 40.3256 29.9132 43.0573 31.7495 43.0026H54.244C56.0779 42.9601 56.0779 40.2308 54.244 40.1901H44.4031V10.7357C43.9428 10.6985 43.4903 10.6559 43.0023 10.6559V10.6561ZM58.471 12.598L64.714 26.122H52.2281L58.471 12.598ZM27.5363 12.6085L33.7683 26.1244H21.2933L27.5363 12.6085ZM9.53248 27.5335C8.04689 27.5335 6.75105 28.2257 5.89875 29.184C5.04654 30.1424 4.5463 31.3207 4.22607 32.5158C3.33571 35.8387 1.94845 44.2136 0.847779 48.314C0.123987 52.2329 1.44693 55.5481 4.05302 58.0726L15.2948 69.3116C15.8721 69.8886 16.0964 70.4975 16.1957 71.1217H35.9738V67.3423C35.9738 64.3607 35.8867 60.7119 32.579 57.3943L21.1505 45.875C20.0073 44.7317 18.4907 44.0504 16.9867 44.1529C15.3535 44.2645 14.1239 44.6504 12.8311 45.8722C10.547 48.1564 10.5469 51.9075 12.8311 54.1916L21.0928 62.4562C22.4729 63.7816 20.4297 65.8247 19.1043 64.4446L10.8426 56.1802C7.46878 52.8064 7.46889 47.2575 10.8426 43.8837C11.9891 42.7373 13.3962 41.9847 14.8801 41.6152V32.8783C14.8801 29.9402 12.4711 27.5334 9.53248 27.5335ZM76.4666 27.5335C73.528 27.5334 71.1186 29.9402 71.119 32.8783L71.1219 41.6152C72.6057 41.9845 74.0102 42.7373 75.1566 43.8837C78.5303 47.2575 78.5304 52.8064 75.1566 56.1802L66.8949 64.4446C65.5695 65.8247 63.5263 63.7816 64.9063 62.4562L73.1681 54.1916C75.4523 51.9075 75.4522 48.1564 73.1681 45.8722C71.8753 44.6506 70.6456 44.2642 69.0125 44.1529C67.5083 44.0504 65.9919 44.7317 64.8487 45.875L53.4201 57.3943C50.1125 60.7119 50.0254 64.3607 50.0254 67.3423V71.1217H69.8035C69.9029 70.4975 70.1272 69.8887 70.7044 69.3116L81.9461 58.0726C84.5522 55.5481 85.8752 52.2329 85.1514 48.314C84.0507 44.2136 82.6634 35.8387 81.7731 32.5158C81.4526 31.3207 80.9527 30.1424 80.1004 29.184C79.2482 28.2257 77.9522 27.5335 76.4667 27.5335H76.4666ZM13.4655 73.9341C12.6889 73.9369 12.0619 74.5693 12.0648 75.3459V83.7751C12.062 84.5517 12.6889 85.1837 13.4655 85.1869H38.7835C39.5612 85.1854 40.19 84.5528 40.187 83.7751V75.3459C40.1899 74.5682 39.5612 73.9357 38.7835 73.9341H13.4655ZM47.2155 73.9341C46.4379 73.9355 45.809 74.5682 45.8121 75.3459V83.7751C45.8093 84.5528 46.4379 85.1853 47.2155 85.1869H72.5336C73.3102 85.1841 73.9372 84.5517 73.9343 83.7751V75.3459C73.9371 74.5693 73.3102 73.9372 72.5336 73.9341H47.2155Z" fill="#1277D3"/>
</svg>
