<svg width="87" height="89" viewBox="0 0 87 89" fill="none" xmlns="http://www.w3.org/2000/svg">
<path d="M65.9048 19.6653C66.837 18.981 67.8419 18.3902 68.9226 17.936L59.7818 12.9084C59.7981 13.2098 59.8278 13.5081 59.8278 13.8124C59.8278 14.6303 59.7476 15.4289 59.6318 16.2156L65.9048 19.6653Z" fill="#1277D3"/>
<path d="M27.3683 16.2141C27.2525 15.4289 27.1724 14.6303 27.1724 13.8124C27.1724 13.5081 27.2021 13.2112 27.2184 12.9099L18.0791 17.936C19.1582 18.3902 20.1632 18.9795 21.0954 19.6638L27.3683 16.2141Z" fill="#1277D3"/>
<path d="M61.3125 46.4688C59.6723 46.4688 58.3438 47.7973 58.3438 49.4375V46.4688C58.3438 44.8285 57.0152 43.5 55.375 43.5C53.7348 43.5 52.4062 44.8285 52.4062 46.4688C52.4062 44.8285 51.0777 43.5 49.4375 43.5C47.7973 43.5 46.4688 44.8285 46.4688 46.4688V28.6562C46.4688 27.016 45.1402 25.6875 43.5 25.6875C41.8598 25.6875 40.5312 27.016 40.5312 28.6562V56.8802C40.5312 57.802 40.316 58.7104 39.9048 59.5357L39.0469 61.2502H37.5625C37.5625 61.2502 36.6912 56.895 35.8926 52.9035C35.137 49.1258 31.8195 46.4064 27.966 46.4064C26.7073 46.4064 25.6875 47.4262 25.6875 48.6834V48.6849C25.6875 49.1347 25.8211 49.5741 26.0705 49.9496L27.5979 52.2415C28.2941 53.285 28.7379 54.4784 28.8937 55.7223L29.9209 63.9369C30.0664 65.1036 30.442 66.2302 31.0253 67.2515L36.0781 77.6406V82.0938H33.1094V88.0312H62.7969V82.0938H59.8281V77.6406L62.5 74.0781C63.6563 72.5359 64.2812 70.6611 64.2812 68.7344V49.4375C64.2812 47.7973 62.9527 46.4688 61.3125 46.4688Z" fill="#1277D3"/>
<path d="M5.21484 41.1116C7.19945 42.6034 9.65758 43.5 12.328 43.5C14.9984 43.5 17.4565 42.6034 19.4411 41.1116C17.7712 38.897 15.1438 37.5625 12.328 37.5625C9.51211 37.5625 6.88477 38.897 5.21484 41.1116Z" fill="#1277D3"/>
<path d="M12.3281 34.5938C14.7875 34.5938 16.7812 32.6 16.7812 30.1406C16.7812 27.6812 14.7875 25.6875 12.3281 25.6875C9.86873 25.6875 7.875 27.6812 7.875 30.1406C7.875 32.6 9.86873 34.5938 12.3281 34.5938Z" fill="#1277D3"/>
<path d="M12.3281 19.75C5.78055 19.75 0.453125 25.0774 0.453125 31.625C0.453125 34.4349 1.43875 37.0177 3.0775 39.0528C4.25313 37.5892 5.74344 36.4359 7.4282 35.6714C5.89336 34.3102 4.90625 32.3479 4.90625 30.1406C4.90625 26.0482 8.2357 22.7187 12.3281 22.7187C16.4205 22.7187 19.75 26.0482 19.75 30.1406C19.75 32.3479 18.7629 34.3102 17.228 35.6714C18.9128 36.4373 20.4031 37.5892 21.5788 39.0528C23.2175 37.0177 24.2031 34.4349 24.2031 31.625C24.2031 25.0774 18.8757 19.75 12.3281 19.75Z" fill="#1277D3"/>
<path d="M74.6719 34.5938C77.1313 34.5938 79.125 32.6 79.125 30.1406C79.125 27.6812 77.1313 25.6875 74.6719 25.6875C72.2125 25.6875 70.2188 27.6812 70.2188 30.1406C70.2188 32.6 72.2125 34.5938 74.6719 34.5938Z" fill="#1277D3"/>
<path d="M81.7849 41.1116C80.1149 38.897 77.4876 37.5625 74.6717 37.5625C71.8559 37.5625 69.2285 38.897 67.5586 41.1116C69.5432 42.6034 72.0013 43.5 74.6717 43.5C77.3421 43.5 79.8002 42.6034 81.7849 41.1116Z" fill="#1277D3"/>
<path d="M67.25 30.1406C67.25 26.0482 70.5795 22.7187 74.6719 22.7187C78.7643 22.7187 82.0938 26.0482 82.0938 30.1406C82.0938 32.3479 81.1066 34.3102 79.5718 35.6714C81.2566 36.4373 82.7469 37.5892 83.9225 39.0528C85.5612 37.0177 86.5469 34.4349 86.5469 31.625C86.5469 25.0774 81.2195 19.75 74.6719 19.75C68.1243 19.75 62.7969 25.0774 62.7969 31.625C62.7969 34.4349 63.7825 37.0177 65.4213 39.0528C66.5969 37.5892 68.0872 36.4359 69.772 35.6714C68.2371 34.3102 67.25 32.3479 67.25 30.1406Z" fill="#1277D3"/>
<path d="M9.35938 69.0075V49.4375H6.39062V69.0075C4.66727 69.622 3.42188 71.2548 3.42188 73.1875C3.42188 75.6427 5.41984 77.6406 7.875 77.6406C10.3302 77.6406 12.3281 75.6427 12.3281 73.1875C12.3281 71.2548 11.0827 69.622 9.35938 69.0075Z" fill="#1277D3"/>
<path d="M16.7812 49.4375C14.3261 49.4375 12.3281 51.4355 12.3281 53.8906C12.3281 55.8233 13.5735 57.4561 15.2969 58.0706V77.6406H18.2656V58.0706C19.989 57.4561 21.2344 55.8233 21.2344 53.8906C21.2344 51.4355 19.2364 49.4375 16.7812 49.4375Z" fill="#1277D3"/>
<path d="M74.6719 69.0075V49.4375H71.7031V69.0075C69.9798 69.622 68.7344 71.2548 68.7344 73.1875C68.7344 75.6427 70.7323 77.6406 73.1875 77.6406C75.6427 77.6406 77.6406 75.6427 77.6406 73.1875C77.6406 71.2548 76.3952 69.622 74.6719 69.0075Z" fill="#1277D3"/>
<path d="M82.0938 49.4375C79.6386 49.4375 77.6406 51.4355 77.6406 53.8906C77.6406 55.8233 78.886 57.4561 80.6094 58.0706V77.6406H83.5781V58.0706C85.3015 57.4561 86.5469 55.8233 86.5469 53.8906C86.5469 51.4355 84.5489 49.4375 82.0938 49.4375Z" fill="#1277D3"/>
<path d="M38.5808 16.3582C37.0578 14.9985 36.0781 13.0421 36.0781 10.8438C36.0781 6.75133 39.4076 3.42188 43.5 3.42188C47.5924 3.42188 50.9219 6.75133 50.9219 10.8438C50.9219 13.0421 49.9422 14.9985 48.4192 16.3582C50.8803 17.4745 52.9035 19.4145 54.1266 21.8771C55.8337 19.6327 56.8594 16.8436 56.8594 13.8125C56.8594 6.44555 50.867 0.453125 43.5 0.453125C36.133 0.453125 30.1406 6.44555 30.1406 13.8125C30.1406 16.8436 31.1663 19.6327 32.8734 21.8771C34.0965 19.4145 36.1197 17.4745 38.5808 16.3582Z" fill="#1277D3"/>
<path d="M35.1309 24.2105C36.0556 24.9572 37.0858 25.5762 38.1887 26.0571C39.155 24.0888 41.1619 22.7187 43.4998 22.7187C45.8377 22.7187 47.8445 24.0888 48.8123 26.0571C49.9152 25.5747 50.9439 24.9572 51.8702 24.2105C50.6248 20.6777 47.3176 18.2656 43.4998 18.2656C39.682 18.2656 36.3733 20.6777 35.1309 24.2105Z" fill="#1277D3"/>
<path d="M43.5 15.2969C45.9594 15.2969 47.9531 13.3031 47.9531 10.8438C47.9531 8.38436 45.9594 6.39062 43.5 6.39062C41.0406 6.39062 39.0469 8.38436 39.0469 10.8438C39.0469 13.3031 41.0406 15.2969 43.5 15.2969Z" fill="#1277D3"/>
</svg>
