<svg width="62" height="84" viewBox="0 0 62 84" fill="none" xmlns="http://www.w3.org/2000/svg">
<path d="M50.9071 4.13072C50.2842 3.47795 49.1836 3.9188 49.1836 4.82106V12.289C49.1836 12.8413 49.6313 13.289 50.1836 13.289H57.3093C58.1889 13.289 58.64 12.2351 58.0328 11.5986L50.9071 4.13072Z" fill="#1277D3"/>
<path d="M41.8866 41.3527C46.6485 33.6476 44.2626 23.5409 36.5574 18.779C28.8522 14.017 18.7456 16.4029 13.9836 24.1081C9.22167 31.8133 11.6076 41.9199 19.3128 46.6819C27.018 51.4439 37.1246 49.0579 41.8866 41.3527Z" fill="#1277D3"/>
<path d="M46.5039 14.6253V2.27344C46.5039 1.16887 45.6085 0.273438 44.5039 0.273438H2.56641C1.46184 0.273438 0.566406 1.16887 0.566406 2.27344V81.7266C0.566406 82.8311 1.46184 83.7266 2.56641 83.7266H59.4336C60.5382 83.7266 61.4336 82.8311 61.4336 81.7266V15.9688H47.7718C47.5993 15.967 47.429 15.9305 47.271 15.8614C47.113 15.7923 46.9706 15.692 46.8522 15.5666C46.7338 15.4412 46.642 15.2932 46.5821 15.1314C46.5223 14.9697 46.4957 14.7975 46.5039 14.6253ZM9.69859 59.6094H33.7055C34.0609 59.6094 34.4017 59.7505 34.6529 60.0018C34.9042 60.2531 35.0454 60.5939 35.0454 60.9492C35.0454 61.3046 34.9042 61.6454 34.6529 61.8966C34.4017 62.1479 34.0609 62.2891 33.7055 62.2891H9.69859C9.34324 62.2891 9.00245 62.1479 8.75118 61.8966C8.49991 61.6454 8.35875 61.3046 8.35875 60.9492C8.35875 60.5939 8.49991 60.2531 8.75118 60.0018C9.00245 59.7505 9.34324 59.6094 9.69859 59.6094ZM51.1392 72.4336H9.69859C9.34324 72.4336 9.00245 72.2924 8.75118 72.0412C8.49991 71.7899 8.35875 71.4491 8.35875 71.0938C8.35875 70.7384 8.49991 70.3976 8.75118 70.1463C9.00245 69.8951 9.34324 69.7539 9.69859 69.7539H51.1392C51.4945 69.7539 51.8353 69.8951 52.0866 70.1463C52.3379 70.3976 52.479 70.7384 52.479 71.0938C52.479 71.4491 52.3379 71.7899 52.0866 72.0412C51.8353 72.2924 51.4945 72.4336 51.1392 72.4336ZM52.7526 57.5481C52.6281 57.6726 52.4804 57.7713 52.3179 57.8386C52.1553 57.9059 51.9811 57.9406 51.8051 57.9406C51.6291 57.9406 51.4549 57.9059 51.2923 57.8386C51.1298 57.7713 50.982 57.6726 50.8576 57.5481L40.4402 47.1306C36.7029 50.3768 31.8515 52.0454 26.9082 51.7849C21.9649 51.5244 17.3157 49.3551 13.9404 45.7341C10.5651 42.1131 8.72722 37.3232 8.81409 32.3738C8.90096 27.4244 10.9058 22.702 14.4061 19.2017C17.9064 15.7014 22.6288 13.6965 27.5783 13.6097C32.5277 13.5228 37.3176 15.3606 40.9385 18.736C44.5595 22.1113 46.7288 26.7604 46.9894 31.7038C47.2499 36.6471 45.5812 41.4985 42.3351 45.2357L52.7526 55.6534C53.0038 55.9047 53.1449 56.2454 53.1449 56.6008C53.1449 56.9561 53.0038 57.2969 52.7526 57.5481Z" fill="#1277D3"/>
</svg>
