<svg width="86" height="80" viewBox="0 0 86 80" fill="none" xmlns="http://www.w3.org/2000/svg">
<path d="M36.7 52.7802C38.14 54.2202 40.39 54.2202 41.74 52.7802L43 51.5202C44.44 50.0802 44.44 47.8302 43 46.3902L27.97 31.5402C26.53 30.1002 24.28 30.1002 22.84 31.5402L21.58 32.8002C20.14 34.2402 20.14 36.4902 21.58 37.9302L36.7 52.7802Z" fill="#1277D3"/>
<path d="M66.9399 22.5401C68.3799 23.9801 70.6299 23.9801 72.0699 22.5401L73.3299 21.2801C74.7699 19.8401 74.7699 17.5901 73.3299 16.1501L58.2999 1.21013C56.8599 -0.229873 54.6099 -0.229873 53.1699 1.21013L51.9999 2.47013C50.5599 3.91013 50.5599 6.16013 51.9999 7.60013L66.9399 22.5401Z" fill="#1277D3"/>
<path d="M83.7701 54.9401L57.5801 31.6301L64.3301 24.8801L49.6601 10.1201L30.5801 29.2001L45.3401 43.9601L52.0901 37.2101L75.4001 63.3101C77.6501 65.8301 81.6101 66.0101 84.0401 63.5801C86.4701 61.1501 86.2901 57.1901 83.7701 54.9401Z" fill="#1277D3"/>
<path d="M45.07 72.6702H40.75V71.3202C40.75 69.3402 39.13 67.7202 37.15 67.7202H11.05C9.07 67.7202 7.45 69.3402 7.45 71.3202V72.6702H3.13C1.51 72.6702 0.25 73.9302 0.25 75.5502V76.9002C0.25 78.5202 1.51 79.7802 3.13 79.7802H45.07C46.69 79.7802 47.95 78.5202 47.95 76.9002V75.5502C47.95 73.9302 46.6 72.6702 45.07 72.6702Z" fill="#1277D3"/>
</svg>
