<svg width="84" height="84" viewBox="0 0 84 84" fill="none" xmlns="http://www.w3.org/2000/svg">
<path d="M81.425 22.9249C80.2375 21.7374 78.675 21.0874 77 21.0874C75.325 21.0874 73.7625 21.7374 72.575 22.9249L70.8125 24.6874L79.65 33.5249L81.425 31.7624C82.6 30.5749 83.25 29.0124 83.25 27.3374C83.25 25.6749 82.6 24.0999 81.425 22.9249Z" fill="#1277D3"/>
<path d="M15.7496 2.00008V14.5001C15.7496 15.1876 15.1871 15.7501 14.4996 15.7501H1.99959C1.49959 15.7501 1.03709 15.4501 0.849588 14.9751C0.649588 14.5126 0.762088 13.9751 1.11209 13.6126L13.6121 1.11258C13.9746 0.762576 14.5121 0.650076 14.9746 0.850076C15.4496 1.03758 15.7496 1.50008 15.7496 2.00008Z" fill="#1277D3"/>
<path d="M69.0523 26.4516L44.2949 51.209L53.1337 60.0477L77.891 35.2904L69.0523 26.4516Z" fill="#1277D3"/>
<path d="M40.8625 51.3125L62 29.9625V2C62 1.3125 61.4375 0.75 60.75 0.75H18.25V14.5C18.25 16.5625 16.5625 18.25 14.5 18.25H0.75V82C0.75 82.6875 1.3125 83.25 2 83.25H60.75C61.4375 83.25 62 82.6875 62 82V54.7125L52.2625 63.6875L42.5125 66.3375C42.325 66.3875 42.025 66.45 41.65 66.45C40.65 66.45 39.7125 66.0625 39 65.3375C38.0625 64.45 37.675 63.0625 38.0125 61.7375L40.8625 51.3125ZM6.25 24.5H44.575C45.1875 24.5 45.7 25.0625 45.7 25.75C45.7 26.4375 45.1875 27 44.575 27H6.25C5.625 27 5.125 26.4375 5.125 25.75C5.125 25.0625 5.625 24.5 6.25 24.5ZM6.25 32H44.575C45.1875 32 45.7 32.5625 45.7 33.25C45.7 33.9375 45.1875 34.5 44.575 34.5H6.25C5.625 34.5 5.125 33.9375 5.125 33.25C5.125 32.5625 5.625 32 6.25 32ZM6.25 54.5H29.35C29.975 54.5 30.4875 55.0625 30.4875 55.75C30.4875 56.4375 29.975 57 29.35 57H6.25C5.625 57 5.125 56.4375 5.125 55.75C5.125 55.0625 5.625 54.5 6.25 54.5ZM5.125 48.25C5.125 47.5625 5.625 47 6.25 47H29.35C29.975 47 30.4875 47.5625 30.4875 48.25C30.4875 48.9375 29.975 49.5 29.35 49.5H6.25C5.625 49.5 5.125 48.9375 5.125 48.25ZM6.25 62H33.3C33.925 62 34.425 62.5625 34.425 63.25C34.425 63.9375 33.925 64.5 33.3 64.5H6.25C5.625 64.5 5.125 63.9375 5.125 63.25C5.125 62.5625 5.625 62 6.25 62ZM44.575 69.5C45.1875 69.5 45.7 70.0625 45.7 70.75C45.7 71.4375 45.1875 72 44.575 72H6.25C5.625 72 5.125 71.4375 5.125 70.75C5.125 70.0625 5.625 69.5 6.25 69.5H44.575ZM6.25 42C5.625 42 5.125 41.4375 5.125 40.75C5.125 40.0625 5.625 39.5 6.25 39.5H44.575C45.1875 39.5 45.7 40.0625 45.7 40.75C45.7 41.4375 45.1875 42 44.575 42H6.25Z" fill="#1277D3"/>
<path d="M40.7629 63.5749C41.0004 63.8124 41.3129 63.9499 41.6504 63.9499C41.7504 63.9499 41.8629 63.9249 41.9754 63.8999L51.0004 61.4374L42.9004 53.3374L40.4379 62.3624C40.3254 62.7999 40.4379 63.2624 40.7629 63.5749Z" fill="#1277D3"/>
</svg>
