<svg width="75" height="75" viewBox="0 0 75 75" fill="none" xmlns="http://www.w3.org/2000/svg">
<path d="M37.5 2.34375C35.5726 2.34375 33.989 3.92975 33.989 5.85713V7.84151C35.0568 7.32862 36.245 7.03362 37.5 7.03362C38.7561 7.03362 39.9448 7.3299 41.0133 7.84381V5.85713C41.0133 3.92975 39.4274 2.34375 37.5 2.34375ZM37.5 9.37727C34.2778 9.37727 31.6452 12.0122 31.6452 15.2343C31.6452 18.4565 34.2778 21.0892 37.5 21.0892C40.7222 21.0892 43.3571 18.4565 43.3571 15.2343C43.3571 12.0122 40.7222 9.37727 37.5 9.37727ZM29.3015 15.1725C27.8953 15.5689 26.6193 16.0291 25.3807 16.4795C23.5398 17.1489 21.7618 17.7853 19.6358 18.2145C19.805 18.7587 19.9219 19.325 19.9219 19.9219C19.9219 20.1323 19.9096 20.3396 19.8876 20.5445C22.3024 20.0741 24.2897 19.3664 26.1864 18.6767C27.3279 18.2617 28.4434 17.8599 29.6311 17.5094C29.4192 16.7853 29.2992 16.0231 29.2992 15.2343C29.2992 15.2122 29.3013 15.1945 29.3015 15.1724L29.3015 15.1725ZM45.6986 15.1725C45.6987 15.1947 45.7009 15.2124 45.7009 15.2346C45.7009 16.0234 45.5809 16.7856 45.369 17.5097C46.5569 17.86 47.6743 18.2618 48.816 18.677C50.7121 19.3665 52.6986 20.0743 55.1125 20.5447C55.0904 20.3401 55.078 20.1324 55.078 19.9221C55.078 19.3255 55.1948 18.7587 55.3641 18.2146C53.2379 17.7854 51.4597 17.149 49.6191 16.4797C48.38 16.0292 47.1053 15.5695 45.6984 15.1728L45.6986 15.1725ZM69.793 18.5555C70.8065 17.9265 70.3471 16.3621 69.1544 16.3811H69.1544C68.9151 16.3848 68.6828 16.4616 68.4883 16.6007C68.4883 16.6007 67.6801 17.1317 66.3414 17.6651C66.6363 18.3608 66.8015 19.123 66.7992 19.9562C68.6423 19.3054 69.793 18.5555 69.793 18.5555ZM8.6586 17.6674C7.31578 17.1337 6.50482 16.6008 6.50482 16.6008C6.3101 16.4671 6.07955 16.3953 5.84336 16.3948C4.67055 16.3923 4.22002 17.9221 5.20706 18.5555C5.20706 18.5555 6.35855 19.3076 8.20312 19.9574C8.20084 19.124 8.36436 18.3625 8.6586 17.6674ZM14.0671 16.4108C12.1393 16.4108 10.5446 17.9941 10.5446 19.9219C10.5446 21.8496 12.1393 23.4353 14.0671 23.4353C15.9948 23.4353 17.5781 21.8496 17.5781 19.9219C17.5781 17.9941 15.9948 16.4108 14.0671 16.4108ZM60.9352 16.4108C59.0075 16.4108 57.4242 17.9941 57.4242 19.9219C57.4242 21.8496 59.0075 23.4353 60.9352 23.4353C62.863 23.4353 64.4554 21.8496 64.4554 19.9219C64.4554 17.9941 62.863 16.4108 60.9352 16.4108ZM41.0133 22.6249C39.9448 23.1386 38.7561 23.4353 37.5 23.4353C36.245 23.4353 35.0568 23.1402 33.989 22.6272V58.5938H41.0133V22.6249ZM57.8316 24.8588L50.457 44.5335H52.961L60.022 25.7012C59.2265 25.5741 58.4891 25.2759 57.8316 24.8588ZM17.1661 24.8613C16.5119 25.2754 15.7782 25.5715 14.9872 25.6989L22.0413 44.5337H24.5453L17.1661 24.8613ZM10.9612 24.8636L3.58658 44.5337H6.08368L13.147 25.6989C12.3546 25.5718 11.6173 25.2776 10.9612 24.8634V24.8636ZM64.0411 24.8636C63.3838 25.2786 62.6448 25.572 61.8507 25.6989L68.9163 44.5337H71.4134L64.0411 24.8636ZM3.45612 46.8773C2.80013 46.9371 2.3429 47.4418 2.34375 48.0446C2.34375 48.0446 2.33343 50.6697 3.81546 53.3043C5.29748 55.9391 8.44642 58.5915 14.0671 58.5915C19.6877 58.5915 22.8252 55.9391 24.3073 53.3043C25.7893 50.6697 25.779 48.0446 25.779 48.0446C25.7767 47.4006 25.2557 46.8796 24.6117 46.8773H3.45612ZM50.3334 46.8773C49.6774 46.9371 49.2225 47.4418 49.2233 48.0446C49.2233 48.0446 49.2016 50.6697 50.6836 53.3043C52.1656 55.9391 55.3146 58.5915 60.9352 58.5915C66.5559 58.5915 69.7048 55.9391 71.1868 53.3043C72.6689 50.6697 72.6563 48.0446 72.6563 48.0446C72.6539 47.3972 72.1272 46.8748 71.4798 46.8773H50.3334ZM25.779 60.9353C24.2655 60.9353 22.9772 61.9238 22.4876 63.2789H52.5147C52.0251 61.9238 50.7368 60.9353 49.2233 60.9353H25.779ZM22.2679 65.6227C20.3405 65.6227 18.7454 67.2178 18.7454 69.1452V71.4798C18.743 72.1305 19.2711 72.6587 19.9219 72.6562H55.0781C55.7253 72.6536 56.2479 72.1269 56.2454 71.4798V69.1452C56.2454 67.2178 54.6618 65.6227 52.7344 65.6227H22.2679Z" fill="white"/>
</svg>
