<svg width="77" height="77" viewBox="0 0 77 77" fill="none" xmlns="http://www.w3.org/2000/svg">
<path d="M37.5375 46.2722C38.0909 46.0797 39.5467 45.8511 40.9063 48.0167L42.9034 46.5609C41.8808 44.9488 40.6656 44.1186 39.4986 43.7697V42.1094H37.0923V43.7336C36.9961 43.7589 36.8878 43.7697 36.7916 43.807C35.047 44.4206 33.88 46.0328 33.9402 47.7292C33.9642 48.6315 34.4214 50.8212 37.9947 51.7837C39.6309 52.2289 40.2325 52.9267 40.2445 53.42C40.2686 53.9481 39.7392 54.5497 39.0534 54.7915C38.488 54.984 37.0442 55.2126 35.6847 53.047L33.6875 54.5016C34.7102 56.1137 35.9133 56.968 37.0923 57.3048V58.9531H39.4986V57.3289C39.5948 57.3036 39.7031 57.2928 39.7994 57.2555C41.5319 56.6419 42.7109 55.0297 42.6508 53.3333C42.6267 52.431 42.1695 50.2413 38.5842 49.2788C36.96 48.8336 36.3584 48.1358 36.3344 47.6425C36.3223 47.1144 36.8517 46.5128 37.5375 46.2722Z" fill="white"/>
<path d="M38.7888 1.23918L38.5 1.16699L8.42188 8.68652V38.5C8.42188 51.1087 16.1941 68.4337 38.115 75.7367L38.5 75.857L38.885 75.7367C60.8059 68.4337 68.5781 51.1087 68.5781 38.5V8.68652L38.7888 1.23918ZM30.0781 14.4375H31.2812C34.6019 14.4375 37.2969 11.7425 37.2969 8.42184V7.21871H39.7031V8.42184C39.7031 11.7425 42.3981 14.4375 45.7188 14.4375H46.9219V16.8437H45.7188C42.3981 16.8437 39.7031 19.5387 39.7031 22.8593V24.0625H37.2969V22.8593C37.2969 19.5387 34.6019 16.8437 31.2812 16.8437H30.0781V14.4375ZM21.6562 26.4687H55.3438V28.875H21.6562V26.4687ZM38.5 63.7656C31.197 63.7656 25.2656 57.8342 25.2656 50.5312C25.2656 43.2282 31.197 37.2968 38.5 37.2968C45.803 37.2968 51.7344 43.2282 51.7344 50.5312C51.7344 57.8342 45.803 63.7656 38.5 63.7656ZM61.3594 33.6875H15.6406V31.2812H61.3594V33.6875Z" fill="white"/>
</svg>
