<svg width="80" height="80" viewBox="0 0 80 80" fill="none" xmlns="http://www.w3.org/2000/svg">
<path d="M63.75 18.0156L60.1875 14.4531L60.125 15.0781C60.0312 16.0938 59.7344 17.0625 59.2812 17.9688L58.1094 20.3125C58.0312 20.4844 57.9531 20.6406 57.8906 20.8125L63.75 24.5781V18.0156Z" fill="white"/>
<path d="M33.75 25H31.25V30H33.75V25Z" fill="white"/>
<path d="M45 11.25H42.5V16.25H45V11.25Z" fill="white"/>
<path d="M63.75 9.9999H66.25V18.2343L69.8281 14.6562L69.25 8.85928C69.0156 6.51553 66.9219 4.79678 64.5781 5.03116C62.5469 5.23428 60.9531 6.82803 60.75 8.85928L60.5156 11.2499L63.75 14.4843V9.9999Z" fill="white"/>
<path d="M33.75 11.25H31.25V16.25H33.75V11.25Z" fill="white"/>
<path d="M52.5 55V61.25H60V43.75H52.5V52.5H55V55H52.5Z" fill="white"/>
<path d="M40 53.75H41.25C44.0156 53.75 46.25 55.9844 46.25 58.75C46.25 59.625 46.0156 60.5 45.5781 61.25H50V41.25H62.5V61.25H72.5V33.1875L56.25 22.7344L40 33.1875V53.75ZM50 31.875L56.25 27.1875L62.5 31.875V37.5H50V31.875Z" fill="white"/>
<path d="M42.5 25V28.6094L45 27V25H42.5Z" fill="white"/>
<path d="M52.5 33.125V35H60V33.125L56.25 30.3125L52.5 33.125Z" fill="white"/>
<path d="M15 52.4531V60H17.9219C18.9219 60 19.875 59.6094 20.5781 58.9062L22.5 56.9844V44.1719C22.5 48.4531 19.25 52.0313 15 52.4531Z" fill="white"/>
<path d="M66.25 26.1875L69.2812 28.125C72.1562 26.6875 73.3281 23.1875 71.8906 20.2969L70.7187 17.9531C70.6406 17.7969 70.5781 17.6406 70.5156 17.5L66.25 21.7656V26.1875Z" fill="white"/>
<path d="M12.5 35H15V43.2344L18.5469 39.6875C17.7969 37.7812 17.3125 35.7656 17.1094 33.7344L16.625 28.8594C16.4688 27.2656 15.0469 26.1094 13.4531 26.2656C12.0781 26.4062 11 27.4844 10.8594 28.8594L10.375 33.7344C10.2656 34.7812 10.0938 35.8281 9.84375 36.8437L12.5 39.4844V35Z" fill="white"/>
<path d="M73.4531 63.75H30V61.25H41.25C42.625 61.25 43.75 60.125 43.75 58.75C43.75 57.375 42.625 56.25 41.25 56.25H28.3281C27.3281 56.25 26.375 56.6406 25.6719 57.3437L22.3438 60.6719C21.1719 61.8437 19.5781 62.5 17.9219 62.5H5V72.5H18.8906L25.1875 73.9531C31.625 75.4375 38.3281 75.3906 44.75 73.8437L73.7969 66.7969C74.625 66.5937 75.1406 65.7656 74.9375 64.9219C74.7812 64.2344 74.1719 63.75 73.4531 63.75Z" fill="white"/>
<path d="M22.5 25H20V30H22.5V25Z" fill="white"/>
<path d="M12.5001 49.9375V43.0156L9.01575 39.5312C8.75012 40.2187 8.45325 40.9062 8.12512 41.5625C6.68762 44.4375 7.8595 47.9375 10.7345 49.375C11.2814 49.6562 11.8751 49.8438 12.5001 49.9375Z" fill="white"/>
<path d="M22.5 11.25H20V16.25H22.5V11.25Z" fill="white"/>
<path d="M19.625 42.1406L15 46.7656V49.9375C18.1875 49.4844 20.3906 46.5312 19.9375 43.3437C19.875 42.9375 19.7812 42.5313 19.625 42.1406Z" fill="white"/>
<path d="M17.5 22.5H25V32.5H19.5L19.5938 33.4688C19.8281 35.8906 20.5156 38.2656 21.6094 40.4375C22.1875 41.5938 22.4844 42.875 22.4844 44.1562V36.25H37.4844V31.8125L39.9844 30.2031V22.5H47.4844V25.3906L50.0312 23.75H50V5H15V23.8906C15.9375 24.1094 16.8125 24.5781 17.5 25.25V22.5ZM40 8.75H47.5V18.75H40V8.75ZM28.75 8.75H36.25V18.75H28.75V8.75ZM28.75 22.5H36.25V32.5H28.75V22.5ZM17.5 8.75H25V18.75H17.5V8.75Z" fill="white"/>
<path d="M28.3281 53.75H37.5V38.75H25V54.7031C26 54.0781 27.1406 53.75 28.3281 53.75Z" fill="white"/>
</svg>
