<svg width="80" height="80" viewBox="0 0 80 80" fill="none" xmlns="http://www.w3.org/2000/svg">
<path d="M15 49.9999H17.5V44.4211C16.6939 44.7082 15.8532 44.8868 15 44.9524V49.9999Z" fill="white"/>
<path d="M43.75 23.75H47.5C47.8315 23.75 48.1495 23.6183 48.3839 23.3839C48.6183 23.1495 48.75 22.8315 48.75 22.5C48.75 22.1685 48.6183 21.8505 48.3839 21.6161C48.1495 21.3817 47.8315 21.25 47.5 21.25H43.75C43.4185 21.25 43.1005 21.3817 42.8661 21.6161C42.6317 21.8505 42.5 22.1685 42.5 22.5C42.5 22.8315 42.6317 23.1495 42.8661 23.3839C43.1005 23.6183 43.4185 23.75 43.75 23.75Z" fill="white"/>
<path d="M43.75 18.75H47.5C47.8315 18.75 48.1495 18.6183 48.3839 18.3839C48.6183 18.1495 48.75 17.8315 48.75 17.5C48.75 17.1685 48.6183 16.8505 48.3839 16.6161C48.1495 16.3817 47.8315 16.25 47.5 16.25H43.75C43.4185 16.25 43.1005 16.3817 42.8661 16.6161C42.6317 16.8505 42.5 17.1685 42.5 17.5C42.5 17.8315 42.6317 18.1495 42.8661 18.3839C43.1005 18.6183 43.4185 18.75 43.75 18.75Z" fill="white"/>
<path d="M5 50H12.5V43.75V35H5V50Z" fill="white"/>
<path d="M21.0562 38.765C21.2276 38.7382 21.4027 38.7474 21.5703 38.7919C21.738 38.8365 21.8945 38.9154 22.03 39.0238L25.7425 41.9863C26.1467 42.2957 26.6561 42.4343 27.1614 42.3724C27.6666 42.3104 28.1275 42.0529 28.445 41.655C28.7398 41.2653 28.8735 40.7772 28.8186 40.2917C28.7637 39.8062 28.5244 39.3603 28.15 39.0462L22.9487 34.71C22.7514 34.5455 22.6096 34.3241 22.5426 34.0761C22.4756 33.8281 22.4866 33.5655 22.5742 33.3239C22.6617 33.0824 22.8216 32.8737 23.032 32.7263C23.2424 32.5789 23.4931 32.4999 23.75 32.5H30.96L25.7025 29.875C25.1283 29.586 24.4891 29.4506 23.8471 29.482C23.2051 29.5133 22.5821 29.7103 22.0387 30.0537L15 34.4438V42.46C15.9194 42.3634 16.8111 42.0883 17.625 41.65C17.7651 41.578 17.9004 41.497 18.03 41.4075C18.9028 40.8758 19.6486 40.1595 20.215 39.3088C20.3102 39.165 20.434 39.0425 20.5788 38.9489C20.7235 38.8553 20.8861 38.7927 21.0562 38.765Z" fill="white"/>
<path d="M31.25 57.5H33.75V55H36.25V57.5H38.75V52.5H31.25V57.5Z" fill="white"/>
<path d="M43.75 28.75H47.5C47.8315 28.75 48.1495 28.6183 48.3839 28.3839C48.6183 28.1495 48.75 27.8315 48.75 27.5C48.75 27.1685 48.6183 26.8505 48.3839 26.6161C48.1495 26.3817 47.8315 26.25 47.5 26.25H43.75C43.4185 26.25 43.1005 26.3817 42.8661 26.6161C42.6317 26.8505 42.5 27.1685 42.5 27.5C42.5 27.8315 42.6317 28.1495 42.8661 28.3839C43.1005 28.6183 43.4185 28.75 43.75 28.75Z" fill="white"/>
<path d="M43.75 33.75H47.5C47.8315 33.75 48.1495 33.6183 48.3839 33.3839C48.6183 33.1495 48.75 32.8315 48.75 32.5C48.75 32.1685 48.6183 31.8505 48.3839 31.6161C48.1495 31.3817 47.8315 31.25 47.5 31.25H43.75C43.4185 31.25 43.1005 31.3817 42.8661 31.6161C42.6317 31.8505 42.5 32.1685 42.5 32.5C42.5 32.8315 42.6317 33.1495 42.8661 33.3839C43.1005 33.6183 43.4185 33.75 43.75 33.75Z" fill="white"/>
<path d="M40.3714 50L35.0002 45.3962L29.6289 50H30.0002H40.0002H40.3714Z" fill="white"/>
<path d="M58.2498 8.74995C58.8597 8.75556 59.4673 8.82595 60.0623 8.95995L60.8611 5.3512L56.4861 6.2262C56.3244 6.25852 56.1578 6.25852 55.9961 6.2262L51.6211 5.3512L52.3911 8.74995H58.2498Z" fill="white"/>
<path d="M50 13.75H56.25C56.4657 13.75 56.6777 13.8059 56.8654 13.9121C57.0531 14.0184 57.2102 14.1714 57.3212 14.3562L58.1588 15.7525C58.8816 16.9491 59.8792 17.9562 61.069 18.6903C62.2587 19.4245 63.6063 19.8644 65 19.9738V16.5988L63.6137 14.2875C63.0559 13.3631 62.2693 12.5981 61.3298 12.066C60.3904 11.534 59.3297 11.253 58.25 11.25H50C49.6685 11.25 49.3505 11.3817 49.1161 11.6161C48.8817 11.8505 48.75 12.1685 48.75 12.5C48.75 12.8315 48.8817 13.1495 49.1161 13.3839C49.3505 13.6183 49.6685 13.75 50 13.75Z" fill="white"/>
<path d="M40.0125 35.525C40.005 35.36 40.0125 35.1775 40.0125 35H27.2012L29.7513 37.125C30.4457 37.7043 30.945 38.4834 31.1814 39.3563C31.4177 40.2293 31.3796 41.1538 31.0723 42.0044C30.765 42.855 30.2033 43.5903 29.4636 44.1106C28.7238 44.6309 27.8419 44.9108 26.9375 44.9125C25.9385 44.9063 24.9703 44.5657 24.1875 43.945L21.4587 41.7675C21.0192 42.2483 20.5302 42.6815 20 43.06V73.75C20 74.0815 20.1317 74.3995 20.3661 74.6339C20.6005 74.8683 20.9185 75 21.25 75H48.75C49.0815 75 49.3995 74.8683 49.6339 74.6339C49.8683 74.3995 50 74.0815 50 73.75V49.9675C47.1357 48.7569 44.6754 46.7558 42.9067 44.1982C41.138 41.6406 40.1342 38.6322 40.0125 35.525ZM30 70H22.5V67.5H30V70ZM30 65H22.5V62.5H30V65ZM28.75 58.75V52.5H26.25C25.9948 52.4997 25.7457 52.4213 25.5363 52.2753C25.327 52.1293 25.1673 51.9227 25.0789 51.6833C24.9904 51.4438 24.9773 51.1831 25.0414 50.936C25.1056 50.689 25.2438 50.4674 25.4375 50.3013L34.1875 42.8013C34.4139 42.6076 34.7021 42.5012 35 42.5012C35.2979 42.5012 35.5861 42.6076 35.8125 42.8013L44.5625 50.3013C44.7562 50.4674 44.8944 50.689 44.9586 50.936C45.0227 51.1831 45.0096 51.4438 44.9211 51.6833C44.8327 51.9227 44.673 52.1293 44.4637 52.2753C44.2543 52.4213 44.0052 52.4997 43.75 52.5H41.25V58.75C41.25 59.0815 41.1183 59.3995 40.8839 59.6339C40.6495 59.8683 40.3315 60 40 60H30C29.6685 60 29.3505 59.8683 29.1161 59.6339C28.8817 59.3995 28.75 59.0815 28.75 58.75ZM47.5 70H42.5V67.5H47.5V70ZM47.5 65H38.75V62.5H47.5V65Z" fill="white"/>
<path d="M67.5 17.5V23.1775C67.6937 23.4062 67.8863 23.635 68.0788 23.8587L68.5138 24.3587C70.5284 26.6551 71.8435 29.4801 72.3037 32.5H75V17.5H67.5Z" fill="white"/>
<path d="M66.6252 26L66.1877 25.4925C65.8852 25.14 65.5815 24.7887 65.289 24.4362C64.664 23.7037 64.1102 22.9925 63.5977 22.2837C62.0366 21.9917 60.5546 21.3738 59.2485 20.4702C57.9424 19.5667 56.8415 18.3978 56.0177 17.04L55.5427 16.25H53.1515L50.414 20.1688C50.9776 20.8553 51.274 21.7224 51.2485 22.6103C51.223 23.4982 50.8773 24.347 50.2752 25C50.9023 25.6816 51.2503 26.5739 51.2503 27.5C51.2503 28.4261 50.9023 29.3184 50.2752 30C50.764 30.5358 51.0862 31.2024 51.2023 31.9184C51.3185 32.6343 51.2236 33.3686 50.9293 34.0314C50.6349 34.6943 50.1539 35.2571 49.545 35.6511C48.936 36.0451 48.2255 36.2532 47.5002 36.25H43.7502C43.342 36.2453 42.9374 36.1731 42.5527 36.0363C42.7718 38.6875 43.7484 41.2199 45.3662 43.3318C46.9841 45.4436 49.1749 47.0458 51.6777 47.9475C52.9628 48.4142 54.3118 48.6811 55.6777 48.7388C57.5301 48.8159 59.3789 48.5177 61.113 47.8621C62.8471 47.2064 64.4307 46.2069 65.7686 44.9235C67.1065 43.6401 68.1711 42.0994 68.8983 40.3941C69.6255 38.6887 70.0003 36.8539 70.0002 35C70.0002 34.6138 69.989 34.24 69.9552 33.865C69.7214 30.9531 68.5535 28.1945 66.6252 26ZM54.8852 31.9788L58.4115 33.1525C59.3139 33.4515 60.0859 34.0517 60.5982 34.8525C61.1105 35.6532 61.3318 36.6058 61.2249 37.5504C61.1181 38.495 60.6896 39.3741 60.0114 40.0402C59.3332 40.7063 58.4466 41.1189 57.5002 41.2087V42.5H55.0002V41.2087C53.9761 41.1107 53.025 40.6353 52.332 39.875C51.6389 39.1147 51.2533 38.1238 51.2502 37.095H53.7502C53.7509 37.5337 53.9255 37.9543 54.2357 38.2645C54.5459 38.5748 54.9665 38.7493 55.4052 38.75H57.0952C57.4884 38.7497 57.8686 38.6095 58.1679 38.3546C58.4672 38.0997 58.6661 37.7465 58.7289 37.3584C58.7918 36.9703 58.7145 36.5725 58.5109 36.2362C58.3073 35.8998 57.9907 35.6468 57.6177 35.5225L54.0915 34.3488C53.1885 34.0505 52.4156 33.4506 51.9026 32.6498C51.3896 31.849 51.1678 30.8961 51.2744 29.951C51.381 29.006 51.8095 28.1265 52.4879 27.46C53.1664 26.7936 54.0535 26.3809 55.0002 26.2913V25H57.5002V26.2913C58.5244 26.3893 59.4754 26.8647 60.1685 27.625C60.8616 28.3853 61.2472 29.3762 61.2502 30.405H58.7502C58.7496 29.9663 58.575 29.5457 58.2648 29.2355C57.9545 28.9252 57.534 28.7507 57.0952 28.75H55.4052C55.0121 28.7503 54.6318 28.8905 54.3325 29.1454C54.0332 29.4003 53.8344 29.7535 53.7715 30.1416C53.7087 30.5297 53.786 30.9275 53.9896 31.2638C54.1932 31.6002 54.5097 31.8532 54.8827 31.9775L54.8852 31.9788Z" fill="white"/>
<path d="M57.5 53.75H55V56.25H57.5V53.75Z" fill="white"/>
<path d="M57.5 58.75H55V61.25H57.5V58.75Z" fill="white"/>
<path d="M57.5 63.75H55V68.75H57.5V63.75Z" fill="white"/>
</svg>
