<svg width="80" height="80" viewBox="0 0 80 80" fill="none" xmlns="http://www.w3.org/2000/svg">
<path d="M37.5 37.5C34.0469 37.5 31.25 40.2969 31.25 43.75C31.25 47.2031 34.0469 50 37.5 50C40.9531 50 43.75 47.2031 43.75 43.75C43.75 40.2969 40.9531 37.5 37.5 37.5ZM38.75 44.2656L35.8906 47.125L34.125 45.3594L36.2656 43.2188V40H38.7656V44.2656H38.75Z" fill="white"/>
<path d="M74.2656 57.0469C73.6562 56.0313 72.3906 55.5781 71.2812 56L67.5 57.4062V57.5156H67.2188L42.9844 66.4844C41 67.2344 38.7656 66.9062 37.0625 65.625L29.5781 60H26.25V57.5H41.25C42.625 57.5 43.75 56.375 43.75 55C43.75 53.625 42.625 52.5 41.25 52.5H26.8594C25.2031 52.5 23.6094 53.1563 22.4375 54.3281L20.5781 56.1875C19.3906 57.375 17.8906 58.1875 16.25 58.5469V72.5H20.9844C21.25 72.5 21.5156 72.5312 21.7656 72.5781L33.375 75.0625C36.7656 75.7969 40.3125 75.4219 43.4688 73.9844L73.1562 60.5781C74.4062 60.0156 74.9531 58.5469 74.3906 57.2969C74.3594 57.2188 74.3281 57.125 74.2656 57.0469Z" fill="white"/>
<path d="M45.7344 37.5L43.75 35.5156L42.6094 36.6563C43.375 37.2031 44.0469 37.875 44.5937 38.6406L45.7344 37.5Z" fill="white"/>
<path d="M14.9844 46.5312C15.6719 47.1562 16.5625 47.5 17.5 47.5H20C20.9219 47.5 21.8125 47.1562 22.5 46.5469C23.1875 47.1719 24.0781 47.5 25 47.5H27.5C28.1562 47.5 28.8125 47.3281 29.375 47C28.9688 45.9687 28.75 44.8594 28.75 43.75C28.75 44.4375 28.1875 45 27.5 45H25C24.3125 45 23.75 44.4375 23.75 43.75C23.75 43.0625 24.3125 42.5 25 42.5H27.5C28.1875 42.5 28.75 43.0625 28.75 43.75C28.75 42.6406 28.9688 41.5313 29.375 40.5C31.0938 36.1875 35.875 33.9687 40.2812 35.4531L43.75 31.9844L45.625 33.8594L47.8594 31.625L49.625 33.3906L47.3906 35.625L49.2656 37.5L45.7969 40.9688C46.9375 44.3438 45.9062 48.0781 43.1875 50.3906C45.0469 51.1719 46.25 52.9844 46.25 55H66.7812L70.4219 53.6562C70.6875 53.5625 70.9688 53.4844 71.2656 53.4219V23.75C71.2656 23.0625 70.7031 22.5 70.0156 22.5H17.5C16.8125 22.5 16.25 23.0625 16.25 23.75V40.2188C15.4844 40.4844 14.8281 41 14.375 41.6875C13.2344 39.9531 10.9062 39.4844 9.1875 40.625C8.14062 41.3125 7.5 42.5 7.5 43.75V46.25C7.5 47.1719 7.84375 48.0625 8.45312 48.75C7.82812 49.4375 7.5 50.3281 7.5 51.25V53.75C7.5 54.8125 7.95312 55.8281 8.75 56.5469V58.75H5V72.5H8.75V73.75C8.75 74.4375 9.3125 75 10 75H12.5C13.1875 75 13.75 74.4375 13.75 73.75V56.5469C14.5469 55.8438 15 54.8281 15 53.75V51.25C15 50.3281 14.6562 49.4375 14.0469 48.75C14.5938 48.1406 14.9219 47.3594 14.9844 46.5312ZM56.25 25H65V26.4062C65 27.7031 66.0469 28.75 67.3438 28.75H68.75V48.75H67.3438C66.0469 48.75 65 49.7969 65 51.0938V52.5H56.25V50H62.625C63.0469 48.2031 64.4531 46.7969 66.25 46.375V31.125C64.4531 30.7031 63.0469 29.2969 62.625 27.5H56.25V25ZM56.25 35H52.5V32.5H56.25V35ZM52.8594 26.6094L54.625 28.375L52.125 30.875L50.3594 29.1094L52.8594 26.6094ZM52.1406 36.6094L54.6406 39.1094L52.875 40.875L50.375 38.375L52.1406 36.6094ZM46.25 25H48.75V28.75H46.25V25ZM42.1406 26.6094L44.6406 29.1094L42.875 30.875L40.375 28.375L42.1406 26.6094ZM18.75 28.75H20.1562C21.4531 28.75 22.5 27.7031 22.5 26.4062V25H31.25V27.5H24.875C24.4531 29.2969 23.0469 30.7031 21.25 31.125V40.2188C20.8438 40.0781 20.4219 40 20 40H18.75V28.75ZM17.5 42.5H20C20.6875 42.5 21.25 43.0625 21.25 43.75C21.25 44.4375 20.6875 45 20 45H17.5C16.8125 45 16.25 44.4375 16.25 43.75C16.25 43.0625 16.8125 42.5 17.5 42.5ZM12.5 53.75C12.5 54.4375 11.9375 55 11.25 55C10.5625 55 10 54.4375 10 53.75V51.25C10 50.5625 10.5625 50 11.25 50C11.9375 50 12.5 50.5625 12.5 51.25V53.75ZM12.5 46.25C12.5 46.9375 11.9375 47.5 11.25 47.5C10.5625 47.5 10 46.9375 10 46.25V43.75C10 43.0625 10.5625 42.5 11.25 42.5C11.9375 42.5 12.5 43.0625 12.5 43.75V46.25Z" fill="white"/>
<path d="M30 11.25H37.5V20H40V9.51562L38.75 8.89063V5H36.25V7.64063L33.75 6.39063L27.5 9.51562V20H30V11.25Z" fill="white"/>
<path d="M35 13.75H32.5V20H35V13.75Z" fill="white"/>
<path d="M48.7503 20C49.4378 20 50.0003 19.4375 50.0003 18.75V17.5H60.0003V18.75C60.0003 19.4375 60.5628 20 61.2503 20C61.9378 20 62.5003 19.4375 62.5003 18.75V14.7812C62.5003 14.4531 62.3753 14.125 62.1409 13.8906L61.4378 13.1875L59.4691 8.28125C59.2816 7.8125 58.8128 7.5 58.3128 7.5H51.7034C51.1878 7.5 50.7347 7.8125 50.5472 8.28125L48.5784 13.2031L47.8753 13.9062C47.6409 14.1406 47.5159 14.4531 47.5159 14.7969V18.75C47.5003 19.4375 48.0628 20 48.7503 20ZM52.5003 10H57.5003L58.7503 13.75H51.2503L52.5003 10Z" fill="white"/>
</svg>
