<svg width="75" height="75" viewBox="0 0 75 75" fill="none" xmlns="http://www.w3.org/2000/svg">
<path d="M11.7188 43.3593H14.0625V50.3906H22.1098L21.4723 45.2894C21.2531 43.5351 20.618 41.83 19.6371 40.357C19.3441 39.9175 19.0125 39.5109 18.6645 39.1195L16.793 42.8624L9.40898 36.7101C7.89844 38.5734 7.03125 40.9218 7.03125 43.357V52.7449C7.03125 55.3241 9.12422 57.4218 11.6977 57.4218H24.6094V52.7343H11.7188V43.3593Z" fill="white"/>
<path d="M29.2969 52.7344H26.9531V57.4219H29.3051C30.5941 57.4219 31.6418 56.3707 31.6418 55.0781C31.6406 53.7855 30.5895 52.7344 29.2969 52.7344Z" fill="white"/>
<path d="M42.7545 22.2656H38.5158L39.6408 13.2703L32.7385 14.9953L31.7412 26.9531H38.6717V31.7906L42.7545 22.2656Z" fill="white"/>
<path d="M8.20312 58.8223V62.1094H22.2656V59.7656H11.6977C10.425 59.7656 9.2332 59.4188 8.20312 58.8223Z" fill="white"/>
<path d="M11.3945 35.3132L16.0199 39.1687L16.8625 37.4835C15.4293 36.4359 13.7664 35.7093 11.9898 35.4128L11.3945 35.3132Z" fill="white"/>
<path d="M21.3703 28.125H22.0992C22.1977 27.7476 22.2656 27.3597 22.2656 26.9531V24.6093H24.5754C24.3645 21.0527 23.2406 18.2367 22.384 16.5551C21.3211 17.1996 20.0801 17.5781 18.75 17.5781H15.3598C15.0422 17.5781 14.734 17.5289 14.4363 17.4551L12.5121 22.2656H11.7188C11.0719 22.2656 10.5469 22.7918 10.5469 23.4375C10.5469 23.8804 10.718 24.2965 11.032 24.6093L12.9738 26.5511L11.8945 33.0222L12.3727 33.1019C13.7883 33.3375 15.1477 33.7957 16.4051 34.4426V31.6406H17.577C18.7816 31.6406 19.8703 31.1718 20.7012 30.4218C18.9129 30.2027 17.3508 29.1199 16.5293 27.4769L18.6258 26.4281C19.1496 27.4746 20.2008 28.125 21.3703 28.125Z" fill="white"/>
<path d="M36.3279 43.2094V37.5V29.2969H31.6357L31.6404 51.0422C33.035 51.8555 33.9842 53.3496 33.9854 55.077C33.9854 56.8066 33.035 58.3031 31.6404 59.1164V59.7656H36.3279V43.2094Z" fill="white"/>
<path d="M8.20312 71.4844H17.5781V69.6258C17.5781 68.2441 18.116 66.9457 19.0934 65.9684L20.7504 67.6254C20.216 68.1598 19.9219 68.8711 19.9219 69.6258V71.4844H22.2656V64.4531H8.20312V71.4844Z" fill="white"/>
<path d="M10.4637 27.3551L9.375 26.2664C8.61914 25.5117 8.20312 24.5074 8.20312 23.4375C8.20312 21.7863 9.34805 20.3965 10.8855 20.0215L12.4242 16.173C12.1863 15.866 11.9988 15.5227 11.8828 15.1453C11.543 14.0379 11.734 12.8812 12.4055 11.9719C13.0664 11.0801 14.1246 10.5469 15.2344 10.5469H16.4062V12.8906H15.2344C14.8594 12.8906 14.5148 13.0641 14.291 13.3664C14.1586 13.5457 13.9605 13.9254 14.1234 14.4586C14.2629 14.9086 14.782 15.2344 15.3598 15.2344H18.75C21.3352 15.2344 23.4375 13.132 23.4375 10.5469V8.20312H15.3562C11.8969 8.20312 8.62266 9.71016 6.37031 12.3363C4.5293 14.4855 3.51562 17.2277 3.51562 20.0566V20.5324C3.51562 22.7812 4.49531 24.9094 6.20156 26.373L10.0781 29.6695L10.4637 27.3551Z" fill="white"/>
<path d="M62.9475 35.4269C59.8619 35.9601 57.101 37.7519 55.3643 40.3581C54.3822 41.8312 53.7471 43.5363 53.5291 45.2905L52.8916 50.3905H60.9389V43.3593H63.2826V48.0468H67.9701V43.357C67.9701 41.6273 67.5248 39.9327 66.715 38.4105C65.1061 37.9394 63.7607 36.8542 62.9475 35.4269Z" fill="white"/>
<path d="M61.959 19.4636C61.3649 19.7566 60.6969 19.9218 59.9902 19.9218H51.1637C50.7594 21.5062 50.5051 23.0765 50.4219 24.6093H52.734V26.9531C52.734 27.3597 52.802 27.7476 52.9004 28.125H53.6293C54.7988 28.125 55.8512 27.4746 56.3738 26.4292L58.4703 27.4781C57.6477 29.121 56.0855 30.2039 54.2984 30.423C55.1281 31.1718 56.2168 31.6406 57.4215 31.6406H58.5934V34.4414C59.7184 33.8624 60.9289 33.4511 62.184 33.198C62.1395 32.8957 62.109 32.5886 62.109 32.2734V20.8933C62.109 20.4082 62.0586 19.93 61.959 19.4636Z" fill="white"/>
<path d="M63.2824 52.7344H45.7043C44.4117 52.7344 43.3605 53.7855 43.3594 55.0793C43.3594 56.3707 44.4082 57.4219 45.6961 57.4219H63.3023C65.8758 57.4219 67.9688 55.3242 67.9688 52.7449V50.3906H63.2812V52.7344H63.2824Z" fill="white"/>
<path d="M36.8523 71.0836C37.0996 71.5781 37.9012 71.5793 38.1473 71.0824L42.6355 62.1094H32.3652L36.8523 71.0836Z" fill="white"/>
<path d="M70.6148 31.2551L69.1406 29.7832V17.5781C69.1406 12.409 64.9348 8.20312 59.7656 8.20312H55.0781C51.2004 8.20312 48.0469 11.3566 48.0469 15.2344C48.0469 16.527 49.098 17.5781 50.3906 17.5781H59.9906C61.159 17.5781 62.1094 16.6277 62.1094 15.4594C62.1094 14.4855 61.4496 13.6406 60.5051 13.4039L58.3102 12.8555L58.8773 10.582L61.0723 11.1305C63.0621 11.6285 64.4531 13.4086 64.4531 15.4594C64.4531 16.2621 64.2398 17.0156 63.8684 17.6672C64.2562 18.6984 64.4531 19.7801 64.4531 20.8934V32.2734C64.4531 34.5094 66.2719 36.3281 68.5078 36.3281C70.1508 36.3281 71.4844 34.9945 71.4844 33.3563C71.4844 32.5629 71.175 31.8164 70.6148 31.2551Z" fill="white"/>
<path d="M41.0156 55.0781C41.0168 53.3508 41.966 51.8566 43.3594 51.0433V26.8031L38.6719 37.7414V59.7656H43.3594V59.1152C41.9648 58.3031 41.0156 56.8066 41.0156 55.0781Z" fill="white"/>
<path d="M66.7978 64.4531H52.7354V71.4844H66.7978V64.4531Z" fill="white"/>
<path d="M52.7354 59.7656V62.1094H66.7978V58.8223C65.7678 59.4188 64.576 59.7656 63.3033 59.7656H52.7354Z" fill="white"/>
<path d="M30.4334 10.2621L29.735 7.47065L33.6654 8.45269L34.6193 4.63589L37.4998 7.51636L40.5022 4.51284L41.3424 7.0312H44.0764L43.4201 9.00464L45.642 9.74526L47.3295 4.68745H43.0322L41.5275 0.174561L37.4998 4.20229L33.349 0.0515137L31.9592 5.60972L26.5146 4.248L28.16 10.8316L30.4334 10.2621Z" fill="white"/>
</svg>
